<svg width="1200" height="800" viewBox="0 0 1200 800" fill="none" xmlns="http://www.w3.org/2000/svg">
  <rect width="1200" height="800" fill="#050816"/>
  <g opacity="0.22">
    <path d="M0 80H1200M0 160H1200M0 240H1200M0 320H1200M0 400H1200M0 480H1200M0 560H1200M0 640H1200M0 720H1200" stroke="#3D456F" stroke-width="1"/>
    <path d="M80 0V800M160 0V800M240 0V800M320 0V800M400 0V800M480 0V800M560 0V800M640 0V800M720 0V800M800 0V800M880 0V800M960 0V800M1040 0V800M1120 0V800" stroke="#3D456F" stroke-width="1"/>
  </g>
  <circle cx="250" cy="160" r="260" fill="url(#violet)" opacity="0.26"/>
  <circle cx="900" cy="220" r="280" fill="url(#cyan)" opacity="0.2"/>
  <defs>
    <radialGradient id="violet" cx="0" cy="0" r="1" gradientUnits="userSpaceOnUse" gradientTransform="translate(250 160) rotate(90) scale(260)">
      <stop stop-color="#7C3AED"/>
      <stop offset="1" stop-color="#7C3AED" stop-opacity="0"/>
    </radialGradient>
    <radialGradient id="cyan" cx="0" cy="0" r="1" gradientUnits="userSpaceOnUse" gradientTransform="translate(900 220) rotate(90) scale(280)">
      <stop stop-color="#06B6D4"/>
      <stop offset="1" stop-color="#06B6D4" stop-opacity="0"/>
    </radialGradient>
  </defs>
</svg>
